Coordinates
version=1
nRows=25
nColumns=21
inDegrees=yes

Units are S.I. units (second, meters, Newtons, ...)
If the header above contains a line with 'inDegrees', this indicates whether rotational values are in degrees (yes) or radians (no).

endheader
time	sternoclavicular_r2	sternoclavicular_r3	unrotscap_r3	unrotscap_r2	acromioclavicular_r2	acromioclavicular_r3	acromioclavicular_r1	unrothum_r1	unrothum_r3	unrothum_r2	elv_angle	shoulder_elev	shoulder1_r2	shoulder_rot	elbow_flexion	pro_sup	deviation	flexion	wrist_hand_r1	wrist_hand_r3
      2.01005025	    -13.08081829	      5.54041725	     -5.54041725	     13.08081829	     -2.64859962	     21.40505046	      9.62142287	     -9.62142287	    -21.40505046	      2.64859962	    118.44455744	     54.05284698	   -118.44455744	     19.62458287	      1.09413053	      0.00000000	      0.00000000	     -0.00000000	     -0.00000000	      0.00000000
      2.03015075	    -13.15194351	      5.57054253	     -5.57054253	     13.15194351	     -2.66300103	     21.52143760	      9.67373809	     -9.67373809	    -21.52143760	      2.66300103	    118.45947446	     54.34675222	   -118.45947446	     19.60420231	      1.09557330	      0.00000000	      0.00000000	     -0.00000000	     -0.00000000	      0.00000000
      2.05025126	    -13.22352653	      5.60086172	     -5.60086172	     13.22352653	     -2.67749513	     21.63857385	      9.72639002	     -9.72639002	    -21.63857385	      2.67749513	    118.47467894	     54.64254912	   -118.47467894	     19.58214839	      1.09804179	      0.00000000	      0.00000000	     -0.00000000	     -0.00000000	      0.00000000
      2.07035176	    -13.29554157	      5.63136389	     -5.63136389	     13.29554157	     -2.69207671	     21.75641706	      9.77935973	     -9.77935973	    -21.75641706	      2.69207671	    118.49022383	     54.94013127	   -118.49022383	     19.55807051	      1.10163291	      0.00000000	      0.00000000	     -0.00000000	     -0.00000000	      0.00000000
      2.09045226	    -13.36656561	      5.66144633	     -5.66144633	     13.36656561	     -2.70645764	     21.87263863	      9.83160053	     -9.83160053	    -21.87263863	      2.70645764	    118.50447509	     55.23361840	   -118.50447509	     19.53848434	      1.12090676	      0.00000000	      0.00000000	     -0.00000000	     -0.00000000	      0.00000000
      2.11055276	    -13.43962871	      5.69239241	     -5.69239241	     13.43962871	     -2.72125143	     21.99219685	      9.88534113	     -9.88534113	    -21.99219685	      2.72125143	    118.52083889	     55.53553137	   -118.52083889	     19.50611272	      1.12604774	      0.00000000	      0.00000000	     -0.00000000	     -0.00000000	      0.00000000
      2.13065327	    -13.51315474	      5.72353456	     -5.72353456	     13.51315474	     -2.73613896	     22.11251259	      9.93942223	     -9.93942223	    -22.11251259	      2.73613896	    118.53749039	     55.83935725	   -118.53749039	     19.46986714	      1.13192236	      0.00000000	      0.00000000	     -0.00000000	     -0.00000000	      0.00000000
      2.15075377	    -13.58700327	      5.75481331	     -5.75481331	     13.58700327	     -2.75109178	     22.23335606	      9.99374053	     -9.99374053	    -22.23335606	      2.75109178	    118.55458292	     56.14451576	   -118.55458292	     19.42933397	      1.13967008	      0.00000000	      0.00000000	     -0.00000000	     -0.00000000	      0.00000000
      2.17085427	    -13.66118650	      5.78623383	     -5.78623383	     13.66118650	     -2.76611238	     22.35474722	     10.04830503	    -10.04830503	    -22.35474722	      2.76611238	    118.57230324	     56.45105734	   -118.57230324	     19.38334690	      1.14917130	      0.00000000	      0.00000000	     -0.00000000	     -0.00000000	      0.00000000
      2.19095477	    -13.73565597	      5.81777558	     -5.81777558	     13.73565597	     -2.78119093	     22.47660679	     10.10308006	    -10.10308006	    -22.47660679	      2.78119093	    118.59062539	     56.75878175	   -118.59062539	     19.33084349	      1.16069204	      0.00000000	      0.00000000	     -0.00000000	     -0.00000000	      0.00000000
      2.21105528	    -13.81032122	      5.84940026	     -5.84940026	     13.81032122	     -2.79630912	     22.59878672	     10.15799910	    -10.15799910	    -22.59878672	      2.79630912	    118.60965538	     57.06731517	   -118.60965538	     19.27095140	      1.17499610	      0.00000000	      0.00000000	     -0.00000000	     -0.00000000	      0.00000000
      2.23115578	    -13.88513103	      5.88108616	     -5.88108616	     13.88513103	     -2.81145659	     22.72120320	     10.21302447	    -10.21302447	    -22.72120320	      2.81145659	    118.62950064	     57.37644590	   -118.62950064	     19.20218802	      1.19264024	      0.00000000	      0.00000000	     -0.00000000	     -0.00000000	      0.00000000
      2.25125628	    -13.96004095	      5.91281447	     -5.91281447	     13.96004095	     -2.82662432	     22.84378350	     10.26812347	    -10.26812347	    -22.84378350	      2.82662432	    118.65030826	     57.68599034	   -118.65030826	     19.12258309	      1.21425380	      0.00000000	      0.00000000	     -0.00000000	     -0.00000000	      0.00000000
      2.27135678	    -14.03500023	      5.94456368	     -5.94456368	     14.03500023	     -2.84180205	     22.96644457	     10.32325877	    -10.32325877	    -22.96644457	      2.84180205	    118.67228352	     57.99573873	   -118.67228352	     19.02961060	      1.24066541	      0.00000000	      0.00000000	     -0.00000000	     -0.00000000	      0.00000000
      2.29145729	    -14.10993613	      5.97630299	     -5.97630299	     14.10993613	     -2.85697505	     23.08906738	     10.37837688	    -10.37837688	    -23.08906738	      2.85697505	    118.69570651	     58.30539050	   -118.69570651	     18.92016566	      1.27304091	      0.00000000	      0.00000000	     -0.00000000	     -0.00000000	      0.00000000
      2.31155779	    -14.18476032	      6.00799499	     -6.00799499	     14.18476032	     -2.87212542	     23.21150739	     10.43341282	    -10.43341282	    -23.21150739	      2.87212542	    118.72094693	     58.61458068	   -118.72094693	     18.79022337	      1.31292029	      0.00000000	      0.00000000	     -0.00000000	     -0.00000000	      0.00000000
      2.33165829	    -14.26112845	      6.04034092	     -6.04034092	     14.26112845	     -2.88758842	     23.33647385	     10.48958439	    -10.48958439	    -23.33647385	      2.88758842	    118.74515999	     58.93015075	   -118.74515999	     18.64341426	      1.34216451	      0.00000000	      0.00000000	     -0.00000000	     -0.00000000	      0.00000000
      2.35175879	    -14.33338340	      6.07094471	     -6.07094471	     14.33338340	     -2.90221857	     23.45470965	     10.54273057	    -10.54273057	    -23.45470965	      2.90221857	    118.77891463	     59.22872427	   -118.77891463	     18.45159068	      1.42476325	      0.00000000	      0.00000000	     -0.00000000	     -0.00000000	      0.00000000
      2.37185930	    -14.40683408	      6.10205495	     -6.10205495	     14.40683408	     -2.91709084	     23.57490209	     10.59675624	    -10.59675624	    -23.57490209	      2.91709084	    118.81335460	     59.53223879	   -118.81335460	     18.22586230	      1.50333758	      0.00000000	      0.00000000	     -0.00000000	     -0.00000000	      0.00000000
      2.39195980	    -14.45204805	      6.12120545	     -6.12120545	     14.45204805	     -2.92624575	     23.64888885	     10.63001278	    -10.63001278	    -23.64888885	      2.92624575	    118.88805062	     59.71907296	   -118.88805062	     17.90638955	      1.85501848	      0.00000000	      0.00000000	     -0.00000000	     -0.00000000	      0.00000000
      2.41206030	    -14.55252087	      6.16376100	     -6.16376100	     14.55252087	     -2.94658946	     23.81329950	     10.70391424	    -10.70391424	    -23.81329950	      2.94658946	    118.90168409	     60.13424898	   -118.90168409	     17.58055563	      1.72258385	      0.00000000	      0.00000000	     -0.00000000	     -0.00000000	      0.00000000
      2.43216080	    -14.59847786	      6.18322621	     -6.18322621	     14.59847786	     -2.95589481	     23.88850210	     10.73771729	    -10.73771729	    -23.88850210	      2.95589481	    118.97241583	     60.32415346	   -118.97241583	     17.30061910	      2.05996176	      0.00000000	      0.00000000	     -0.00000000	     -0.00000000	      0.00000000
      2.45226131	    -14.64777625	      6.20410668	     -6.20410668	     14.64777625	     -2.96587673	     23.96917248	     10.77397807	    -10.77397807	    -23.96917248	      2.96587673	    119.04118229	     60.52786538	   -119.04118229	     17.03608003	      2.36629601	      0.00000000	      0.00000000	     -0.00000000	     -0.00000000	      0.00000000
      2.47236181	    -14.69890277	      6.22576146	     -6.22576146	     14.69890277	     -2.97622881	     24.05283435	     10.81158350	    -10.81158350	    -24.05283435	      2.97622881	    119.10782315	     60.73913151	   -119.10782315	     16.78239098	      2.65420541	      0.00000000	      0.00000000	     -0.00000000	     -0.00000000	      0.00000000
      2.49246231	    -14.89058937	      6.30695086	     -6.30695086	     14.89058937	     -3.01504145	     24.36650443	     10.95257605	    -10.95257605	    -24.36650443	      3.01504145	    119.61016944	     61.53122312	   -119.61016944	      9.73127248	      3.56700905	      0.00000000	      0.00000000	     -0.00000000	     -0.00000000	      0.00000000
